<svg width="120" height="120" viewBox="0 0 120 120" fill="none" xmlns="http://www.w3.org/2000/svg">
<g clip-path="url(#clip0_26_2)">
<path d="M94 0H26C11.6406 0 0 11.6406 0 26V94C0 108.359 11.6406 120 26 120H94C108.359 120 120 108.359 120 94V26C120 11.6406 108.359 0 94 0Z" fill="#F8FAFC"/>
<path d="M35.5822 74.2659C35.5822 45.8725 31.9616 11 11.9528 11H11V96.9426C11 103.04 15.764 108.186 22.0525 108.186H47.5875C53.6854 108.186 58.64 103.422 58.64 96.9426V77.5054H41.1085C39.2029 77.5054 35.7728 76.9338 35.5822 74.2659Z" fill="#686D6E"/>
<path d="M96.3709 11H29.8655C37.869 14.8112 43.7764 28.341 43.9669 58.4494C53.1138 54.4477 63.9757 49.6837 81.8884 49.3026C84.1751 49.3026 84.9373 50.6365 84.9373 51.9704C84.9373 53.1138 83.9845 54.2571 82.2695 54.2571L77.696 54.0666V68.168C83.0317 68.9302 91.6069 71.0264 91.988 74.8376C91.988 76.7432 89.8919 77.5054 86.8429 77.5054H63.7852V96.752C63.7852 102.85 68.5492 107.995 75.0282 107.995H107.995V23.1958C108.186 16.9074 102.85 11 96.3709 11Z" fill="#231F20"/>
<path d="M43.5856 62.8323C43.5856 64.9285 43.3951 67.2152 43.2045 70.0736C47.778 68.5491 59.7833 66.2624 73.6941 67.5963V54.0666C62.07 54.8288 53.1136 57.6872 43.5856 62.8323Z" fill="#231F20"/>
</g>
<defs>
<clipPath id="clip0_26_2">
<rect width="120" height="120" fill="white"/>
</clipPath>
</defs>
</svg>
